<mxfile host="e87f0b67-0c18-4163-b7f7-4c4f0ea794e4" modified="2020-09-15T20:11:04.691Z" agent="5.0 (Windows NT 6.3; ) AppleWebKit/537.36 (KHTML, like Gecko) Code/1.49.0 Chrome/83.0.4103.122 Electron/9.2.1 Safari/537.36" etag="mdDTfpxLitVBPULqOY-L" version="13.1.3">
    <diagram id="6hGFLwfOUW9BJ-s0fimq" name="Page-1">
        <mxGraphModel dx="843" dy="686" grid="1" gridSize="10" guides="1" tooltips="1" connect="1" arrows="1" fold="1" page="1" pageScale="1" pageWidth="827" pageHeight="1169" background="#ffffff" math="0" shadow="0">
            <root>
                <mxCell id="0"/>
                <mxCell id="1" parent="0"/>
                <mxCell id="10" value="" style="edgeStyle=orthogonalEdgeStyle;rounded=0;orthogonalLoop=1;jettySize=auto;html=1;" edge="1" parent="1" source="8">
                    <mxGeometry relative="1" as="geometry">
                        <mxPoint x="360" y="95" as="targetPoint"/>
                    </mxGeometry>
                </mxCell>
                <mxCell id="11" style="edgeStyle=orthogonalEdgeStyle;rounded=0;orthogonalLoop=1;jettySize=auto;html=1;strokeColor=#330000;" edge="1" parent="1" source="8">
                    <mxGeometry relative="1" as="geometry">
                        <mxPoint x="220" y="105" as="targetPoint"/>
                    </mxGeometry>
                </mxCell>
                <mxCell id="8" value="&lt;font color=&quot;#330000&quot;&gt;Usuario&lt;/font&gt;" style="shape=umlActor;verticalLabelPosition=bottom;labelBackgroundColor=#ffffff;verticalAlign=top;html=1;outlineConnect=0;strokeColor=#330000;" vertex="1" parent="1">
                    <mxGeometry x="90" y="70" width="40" height="70" as="geometry"/>
                </mxCell>
                <mxCell id="13" style="edgeStyle=orthogonalEdgeStyle;rounded=0;orthogonalLoop=1;jettySize=auto;html=1;strokeColor=#330000;" edge="1" parent="1" source="12" target="14">
                    <mxGeometry relative="1" as="geometry">
                        <mxPoint x="380" y="110" as="targetPoint"/>
                    </mxGeometry>
                </mxCell>
                <mxCell id="12" value="Selecciona admin o user" style="whiteSpace=wrap;html=1;aspect=fixed;strokeColor=#330000;" vertex="1" parent="1">
                    <mxGeometry x="220" y="70" width="80" height="80" as="geometry"/>
                </mxCell>
                <mxCell id="16" style="edgeStyle=orthogonalEdgeStyle;rounded=0;orthogonalLoop=1;jettySize=auto;html=1;strokeColor=#330000;" edge="1" parent="1" source="14" target="18">
                    <mxGeometry relative="1" as="geometry">
                        <mxPoint x="530" y="110" as="targetPoint"/>
                    </mxGeometry>
                </mxCell>
                <mxCell id="14" value="form admin or user" style="whiteSpace=wrap;html=1;aspect=fixed;strokeColor=#330000;" vertex="1" parent="1">
                    <mxGeometry x="360" y="70" width="80" height="80" as="geometry"/>
                </mxCell>
                <mxCell id="25" value="" style="edgeStyle=orthogonalEdgeStyle;rounded=0;orthogonalLoop=1;jettySize=auto;html=1;strokeColor=#330000;" edge="1" parent="1" source="18" target="24">
                    <mxGeometry relative="1" as="geometry"/>
                </mxCell>
                <mxCell id="18" value="User o admin validation" style="whiteSpace=wrap;html=1;aspect=fixed;strokeColor=#330000;" vertex="1" parent="1">
                    <mxGeometry x="520" y="70" width="80" height="80" as="geometry"/>
                </mxCell>
                <mxCell id="24" value="User or admin principal page" style="whiteSpace=wrap;html=1;aspect=fixed;strokeColor=#330000;" vertex="1" parent="1">
                    <mxGeometry x="520" y="200" width="80" height="80" as="geometry"/>
                </mxCell>
            </root>
        </mxGraphModel>
    </diagram>
</mxfile>